<?xml version="1.0" encoding="UTF-8"?><svg xmlns="http://www.w3.org/2000/svg" xmlns:xlink="http://www.w3.org/1999/xlink" height="432.6" preserveAspectRatio="xMidYMid meet" version="1.0" viewBox="0.0 0.0 470.0 432.6" width="470.0" zoomAndPan="magnify"><g id="change1_1"><path d="M182.3,105c3.4,7.8,6,15.9,7.3,24.1l-1.3,0.4c-3.4-7.5-7.4-14.6-12-21.1l-3.5-4.9l-3.7-4.7l-3.9-4.6l-4-4.4 c-1.4-1.4-2.8-2.8-4.3-4.2l-4.5-3.9c-1.5-1.3-3-2.6-4.4-4c-1.4-1.4-2.8-2.8-4.1-4.3c-1.3-1.5-2.6-3-3.9-4.6 c-1.3-1.6-2.5-3.2-3.7-4.9c-1.2-1.7-2.4-3.4-3.6-5.2c-1.1-1.8-2.3-3.6-3.3-5.7l0.8-1.1c2.3,0.4,4.3,1.2,6.4,1.9c2,0.8,4,1.7,5.9,2.6 c1.9,1,3.7,2.1,5.6,3.2c1.8,1.2,3.5,2.4,5.2,3.7c1.7,1.3,3.3,2.7,4.8,4.2c1.5,1.5,2.8,3.2,4.2,4.8l3.8,5.2c1.2,1.8,2.4,3.5,3.7,5.2 l3.6,5.3l3.3,5.4l3,5.6L182.3,105z M227.6,264.7c-1.4,8.7-5.6,16.1-10.5,23.2c-2.4,3.6-5,7.1-7.6,10.8c-2.5,3.7-5,7.6-7.2,11.8 c-2.2,4.2-4.2,8.6-5.8,13.2c-1.5,4.5-2.3,9.3-2.4,13.9c-0.1,4.7,0.3,9.3,1.2,13.8c0.9,4.5,2.1,8.9,4.1,13.4l1.4,0 c2-4.4,3.2-8.8,4.3-13.1c1.1-4.3,2-8.5,2.8-12.6c0.8-4.1,1.4-8.1,1.9-12.2c0.5-4,1.2-8,2.6-11.9c1.4-3.9,3.1-7.7,5.1-11.6 c1.8-3.9,3.8-7.9,5.7-12.1c1.8-4.2,3.5-8.4,4.6-12.9c1.1-4.5,1.6-9.1,1.2-13.6L227.6,264.7z M118.7,190.3c2.8,0.3,5.5,0.7,8.3,1 c5.5,0.7,11.1,1.6,16.6,2.6c2.8,0.5,5.5,1,8.3,1.6c2.7,0.6,5.5,1.2,8.2,1.8c2.7,0.7,5.2,1.5,7.6,2.7c2.4,1.2,4.4,3,6,5.2l1.2-0.7 c-1.3-2.6-3.2-5.1-5.6-7c-2.4-1.9-5.1-3.3-7.8-4.4c-5.4-2.2-10.7-4.1-16.1-6c-5.5-1.8-11-3.5-16.5-4.9c-2.8-0.7-5.6-1.4-8.4-2 c-2.8-0.7-5.6-1.2-8.5-1.8c-5.7-1.1-11.4-2.2-17.1-3.2c-2.9-0.4-5.8-0.8-8.7-0.9c-2.9-0.1-5.8-0.2-8.7,0l-4.3,0.3 c-1.4,0.1-2.9,0.3-4.3,0.5c-2.9,0.3-5.8,0.8-8.6,1.4c-5.7,1.2-11.4,2.9-16.8,5.4l0.1,1.4c5.8,1.5,11.5,2.2,17.1,3 c2.8,0.4,5.6,0.7,8.4,1l8.3,0.8c5.5,0.5,11,0.8,16.6,0.7c5.5,0,11.1,0,16.7,0.5C113.2,189.8,115.9,190,118.7,190.3z M261.7,54.7 c2.5-3.8,4.8-7.7,6.7-11.9c2-4.1,3.8-8.4,5.5-12.8c1.6-4.4,3.1-9,3.9-14l-1.2-0.7c-4.2,2.8-7.7,6.1-11.1,9.5 c-3.3,3.5-6.3,7.1-9.1,11c-2.8,3.9-5.1,8.1-6.9,12.5c-1.8,4.5-3.4,9-5.1,13.5c-1.7,4.5-3.2,9.1-4.5,13.7c-1.2,4.7-2.2,9.4-3,14.1 c-1.4,9.5-1.7,19.2-0.4,28.5l1.4,0c0.8-9.3,2.8-18.3,5.7-26.9c1.4-4.3,3.1-8.5,4.9-12.7c1.8-4.2,3.8-8.2,5.9-12.2 C256.7,62.3,259.2,58.5,261.7,54.7z M154.8,239.1c-3.7-0.2-7.4-0.3-11.1-0.3l-5.6,0c-1.9,0-3.8,0-5.7,0.1c-3.8,0.2-7.6,0.9-11.2,2.4 c-1.8,0.7-3.5,1.5-5.3,2.4c-1.7,0.9-3.5,2-5.1,3.2c-1.7,1.3-3.3,2.8-4.5,4.6c-1.3,1.8-2.2,3.9-2.4,6l1.2,0.8c3.5-1.7,6.6-2,9.8-2.4 c3.2-0.3,6.7-0.7,10-1.2c0.8-0.1,1.7-0.3,2.5-0.4c0.8-0.1,1.7-0.3,2.5-0.5c1.6-0.4,3.3-0.8,4.9-1.3c3.3-1,6.6-2,10-2.6 c3.4-0.6,6.9-1.1,10.4-1.6c3.5-0.5,7-0.9,10.6-1.2c7.1-0.8,14.3-1.3,21.5-2.1l0.1-1.4c-7.1-1.4-14.3-2.6-21.5-3.5 C162.1,239.7,158.4,239.3,154.8,239.1z M267.1,182.4c-0.6,1.1-1.1,2.3-1.5,3.4c-0.9,2.3-1.9,4.6-2.7,7c-0.8,2.4-1.6,4.8-2.3,7.2 l-1.8,7.3l1.3,0.4l2.5-6.9c0.9-2.3,2-4.5,2.9-6.7c1-2.2,2.2-4.4,3.3-6.6c0.5-1.1,1.2-2.1,1.8-3.2l1.9-3.1c5.1-8.3,11.2-15.9,18-22.7 c6.8-6.8,14.3-12.9,22.4-17.9c8.1-5.1,16.7-9.2,25.6-12.2c8.9-2.9,18.4-4.4,27.8-5.2c9.5-0.8,19.1-1.2,28.8-1.8 c19.6-1.1,39.3-1.8,59.3-5.3l0.1-1.4c-9.8-2.2-19.7-3.6-29.6-4.8c-9.9-1.2-19.8-2.2-29.9-2.4c-10-0.2-20.3,0.3-30.4,2.1 c-10.1,1.8-20.2,4.6-29.9,8.4c-9.6,3.9-18.7,9-27,15c-8.3,6.1-15.8,13.1-22.4,20.9c-6.5,7.8-12.1,16.3-16.7,25.3L267.1,182.4z M437.9,200.6c-6.2-3.9-13-7.3-20.2-9.8c-7.2-2.5-14.7-3.8-22.2-4.1c-7.5-0.3-14.9-0.1-22.2,0.3c-7.3,0.4-14.5,1-21.8,2 c-7.2,1-14.4,2.5-21.5,4.4c-7.1,2-14,4.5-20.6,7.8c-6.5,3.4-12.6,7.7-17.4,13.2l1,1c5.4-4.5,11.7-7.8,18.2-10.2 c6.6-2.4,13.4-4,20.3-5c6.9-1.1,13.9-1.7,20.9-2c7-0.3,14-0.3,21-0.1c7,0.2,13.9,1.1,20.6,2.3c6.7,1.2,13.3,2.4,19.9,3.8 c6.6,1.4,13.2,3.3,19.9,5.3c6.8,2,13.6,4.2,20.9,5.8l0.6-1.2C450,209,444.2,204.6,437.9,200.6z M291.6,309.6c-1-3-2.5-5.8-4.4-8.3 c-1.9-2.5-4-4.9-5.9-7.3c-1.9-2.4-3.9-4.8-6-7.1c-2.1-2.3-4.3-4.4-6.6-6.5c-4.6-4.1-9.4-8-14.5-11.2l-0.9,1c3.6,4.9,7,9.7,10.1,14.7 c1.6,2.5,3.1,5,4.4,7.5c1.5,2.5,2.8,5.1,4.1,7.6c1.3,2.6,2.3,5.3,3.3,8c1,2.7,2.3,5.2,3.9,7.6c1.6,2.4,3.4,4.6,5,6.7 c1.7,2.1,3.4,4.2,5,7.2l1.4,0.2c2.4-2.9,3-6.9,2.9-10.4C293.3,315.8,292.5,312.6,291.6,309.6z M406.2,291.2 c-5.5-6.4-11.9-12.2-18.9-17c-7-4.8-14.4-9-21.9-12.7c-7.5-3.7-15.4-6.9-23.3-9.4c-8-2.4-16.2-4.3-24.4-5.4 c-16.4-2.3-33.1-2.1-49.2,0.9l0.2,1.4c16.2-0.8,32.3,0.7,47.8,4.5c7.7,1.9,15.3,4.3,22.6,7.3c7.3,2.9,14.4,6.4,21.1,10.4 c6.7,4,13,8.7,18.9,13.8c5.9,5.1,11.6,10.3,17.2,15.6c5.6,5.4,11.1,11,16.3,16.9c5.3,5.9,10.3,12.2,15.5,18.6l1.3-0.6 c-1.7-8.2-4.8-16.1-8.7-23.6C416.6,304.6,411.7,297.6,406.2,291.2z M417,155.9c0,4.5,3.6,8.1,8.1,8.1c4.5,0,8.1-3.6,8.1-8.1 c0-4.5-3.6-8.1-8.1-8.1C420.6,147.8,417,151.4,417,155.9z M412.8,81.4c2.4,0,4.3-1.9,4.3-4.3c0-2.4-1.9-4.3-4.3-4.3 c-2.4,0-4.3,1.9-4.3,4.3C408.5,79.5,410.4,81.4,412.8,81.4z M386.6,44c2.4,0,4.3-1.9,4.3-4.3s-1.9-4.3-4.3-4.3 c-2.4,0-4.3,1.9-4.3,4.3S384.2,44,386.6,44z M100.4,142.2c2.4,0,4.3-1.9,4.3-4.3c0-2.4-1.9-4.3-4.3-4.3c-2.4,0-4.3,1.9-4.3,4.3 C96.1,140.3,98,142.2,100.4,142.2z M207.5,410.6c-4.5,0-8.1,3.6-8.1,8.1c0,4.5,3.6,8.1,8.1,8.1c4.5,0,8.1-3.6,8.1-8.1 C215.6,414.3,212,410.6,207.5,410.6z M186.6,0c-2.4,0-4.3,1.9-4.3,4.3c0,2.4,1.9,4.3,4.3,4.3c2.4,0,4.3-1.9,4.3-4.3 C190.9,1.9,189,0,186.6,0z M41.8,307.4c-2.4,0-4.3,1.9-4.3,4.3s1.9,4.3,4.3,4.3c2.4,0,4.3-1.9,4.3-4.3S44.2,307.4,41.8,307.4z M265.8,378.1c-2.4,0-4.3,1.9-4.3,4.3s1.9,4.3,4.3,4.3s4.3-1.9,4.3-4.3S268.1,378.1,265.8,378.1z M115.2,330c-2.4,0-4.3,1.9-4.3,4.3 s1.9,4.3,4.3,4.3c2.4,0,4.3-1.9,4.3-4.3S117.6,330,115.2,330z M426.2,252.3c0-2.4-1.9-4.3-4.3-4.3c-2.4,0-4.3,1.9-4.3,4.3 c0,2.4,1.9,4.3,4.3,4.3C424.3,256.6,426.2,254.7,426.2,252.3z" fill="#BE222B"/></g><g id="change2_1"><path d="M281.4,136.6l-1.2-0.7c4.8-10.3,10-20.5,16.4-30.2c3.2-4.8,6.7-9.5,10.6-13.9c3.9-4.4,8.3-8.5,13-12.2 c4.8-3.7,9.8-7.1,15.1-10c5.3-2.9,10.9-5,16.7-6.4c5.7-1.4,11.5-2.1,17.4-2.5c5.8-0.3,11.6-0.2,17.6,0.6l0.3,1.4 c-5.2,3.1-10.4,5.4-15.6,7.6c-5.2,2.2-10.4,4.2-15.4,6.2c-5.1,2-10.1,3.8-15.1,5.6c-5,1.8-9.9,3.9-14.4,6.7c-4.5,2.8-8.8,6-12.9,9.6 c-4.1,3.6-8,7.5-11.6,11.6C294.7,118.2,288,127.4,281.4,136.6z M223.7,130.3l-1.4-20.5c-0.5-6.8-0.8-13.7-1.3-20.6 c-0.3-3.4-0.6-6.8-1-10.2c-0.5-3.4-1.1-6.8-1.8-10.2c-1.4-6.7-3.1-13.4-5.2-20c-2.1-6.6-4.5-13.1-7.7-19.5l-1.4,0.3 c-0.4,3.5-0.5,7-0.6,10.5c-0.1,3.5-0.1,6.9,0,10.4c0.1,6.9,0.5,13.7,1.1,20.5c0.6,6.8,1.6,13.5,2.9,20.2c1.4,6.7,2.8,13.4,3.9,20.1 l6.6,40.4c2.3,13.5,4.4,27,6.9,40.5l1.4-0.1c-0.3-13.7-0.8-27.4-1.4-41.1L223.7,130.3z M190.7,175.6c-3-4-6-8-9.2-11.9 c-3.2-3.9-6.5-7.7-10-11.4c-3.5-3.7-7-7.5-10.8-11.1c-3.8-3.6-8-6.6-12.7-9.1c-4.6-2.4-9.6-4.4-14.7-5.6c-5.1-1.2-10.4-1.9-15.8-1.3 l-0.4,1.3c4.2,3.2,8.2,6,12.1,8.9c3.9,2.8,7.7,5.6,11.4,8.5c3.7,2.8,7.5,5.5,11.5,8.1c4,2.6,8,5.3,11.7,8.4 c3.7,3.1,7.3,6.3,10.9,9.6c3.6,3.3,7.2,6.7,10.7,10.1l10.6,10.4c3.5,3.5,7.1,6.8,9.6,10.9l1.3-0.6c-1.7-4.9-4.7-9.1-7.5-13.2 C196.5,183.7,193.6,179.6,190.7,175.6z M97.7,229.7c6.6-1.2,13.3-2.1,20-2.3c6.8-0.2,13.6-0.1,20.4,0.3c6.8,0.4,13.7,1,20.5,1.9 c13.7,1.6,27.4,4.1,41.2,6.4l0.3-1.3c-13.2-4.5-26.6-8.6-40.3-11.9c-6.8-1.6-13.8-3.1-20.8-4.2c-7-1.1-14.1-1.9-21.3-2.3 c-7.2-0.4-14.4-0.6-21.7-0.3c-7.3,0.3-14.5,1.6-21.5,3.8c-7,2.2-13.7,5.2-20,9c-6.2,3.9-12,8.5-16.5,14.2l0.8,1.1 c6.8-2.4,13.2-4.6,19.7-6.4c6.5-1.8,12.9-3.3,19.4-4.6L97.7,229.7z M151.9,262.3c-8.5,2.5-16.9,5.5-25.1,9 c-8.2,3.7-16.2,8-23.7,13.2l-2.8,1.9l-2.8,2c-1.9,1.3-3.6,2.8-5.4,4.2c-3.5,3-7,6-10.2,9.4c-6.5,6.7-11.7,14.8-15.3,23.6 c-3.5,8.8-5.3,18.2-5.3,27.5c0,9.3,1.8,18.5,5.7,26.7l1.4-0.3c0-8.9,0.9-17.3,2.7-25.4c1.8-8.1,4.5-15.7,8.2-22.9 c1.9-3.5,3.8-7,6-10.4c2.2-3.4,4.5-6.7,7-9.9c2.4-3.3,5.2-6.3,8.1-9.3c2.9-2.9,6-5.8,9.3-8.3c13.1-10.4,28.4-18.2,44.5-24.5 c16-6.4,32.9-11.1,49.6-16.2l-0.3-1.4C186.2,254.2,168.9,257.4,151.9,262.3z M292,196.2l3.5-2.5c1.2-0.8,2.3-1.7,3.6-2.4l3.7-2.2 c1.2-0.7,2.4-1.5,3.7-2.1l3.8-2c1.3-0.7,2.5-1.3,3.8-1.9l3.9-1.7c1.3-0.6,2.6-1.2,3.9-1.6c2.7-0.9,5.3-2,8.1-2.6l4.1-1 c1.4-0.3,2.7-0.7,4.1-0.9l4.1-0.9c1.4-0.3,2.7-0.7,4.1-0.9c2.7-0.5,5.4-1.3,8.2-1.9l4.1-0.9c1.4-0.3,2.7-0.7,4.1-1 c2.8-0.5,5.6-1.1,8.4-1.7c2.8-0.5,5.7-1,8.6-1.6c2.9-0.5,5.8-1,8.9-1.8l0.2-1.4c-2.8-1.3-5.8-2.2-8.7-3.2c-3-0.7-6-1.3-9.1-1.8 c-3.1-0.4-6.2-0.5-9.3-0.7c-3.1,0-6.2,0.2-9.3,0.4c-3.1,0.3-6.1,0.9-9.2,1.5c-3,0.6-6,1.7-8.9,2.7c-2.9,1.1-5.7,2.4-8.6,3.6 c-1.4,0.6-2.8,1.3-4.2,2l-4.1,2c-1.4,0.6-2.7,1.4-4.1,2.2l-4,2.3c-1.4,0.7-2.6,1.6-3.9,2.4l-3.8,2.5c-1.3,0.8-2.5,1.8-3.7,2.7 l-3.6,2.8c-1.2,0.9-2.3,2-3.5,3l-3.4,3.1c-8.7,8.4-16.2,18.2-21.3,29l1.2,0.7C274.4,211,282.7,202.9,292,196.2z M384.1,224.1 c-2.2-1.8-4.7-3.2-7.3-4.4c-5.2-2.3-10.7-3.6-16.1-4.2c-5.4-0.6-10.6-0.5-15.8,0.1c-5.2,0.6-10.3,1.5-15.5,2.1 c-5.1,0.7-10.3,1.5-15.4,2.4c-5.1,1-10.1,2.1-15.2,3.3c-5,1.3-10,2.6-14.9,4.1c-4.9,1.5-9.9,3.2-14.6,5.4l0.4,1.3 c5-1.1,10-1.8,15-2.4c5-0.6,10.1-1.1,15.1-1.5c5-0.4,10.1-0.8,15.1-1c5-0.3,10.1-0.5,15.1-0.5c5-0.1,10.1,0.2,15.1,0.5 c5,0.3,10,0.2,14.8,0c4.8-0.2,9.5-0.4,14.2-0.2c2.4,0.1,4.7,0.3,7.1,0.7c2.4,0.3,4.7,0.9,7.2,1.9l1-1 C388.4,228.1,386.3,226,384.1,224.1z M164.8,351.8l-2.1,4l-1.9,4.1L159,364l-1.5,4.3c-0.5,1.4-0.9,2.9-1.5,4.3l-1.4,4.4 c-0.4,1.5-0.7,3-0.9,4.5c-0.1,1.5-0.1,3.1,0,4.6c0.2,1.5,0.4,3.1,0.7,4.6c0.4,1.5,0.8,3,1.3,4.5c0.6,1.5,1.2,2.9,2,4.4 c0.9,1.4,1.7,2.8,2.9,4.1l1.4-0.2c0.9-1.5,1.5-3,2-4.4c0.6-1.4,1.1-2.8,1.5-4.2c0.5-1.4,0.9-2.7,1.2-4.1c0.4-1.3,0.7-2.7,0.9-4 c0.3-1.3,0.5-2.6,0.6-4c0.1-1.3,0.2-2.7,0.1-4l-0.1-4.1c0-1.4,0.1-2.7,0.2-4.1l0.5-4.1l0.7-4.1l0.7-4.1l0.9-4.1 c1.3-5.4,3-10.8,5.1-16.2l-1.2-0.7C171.1,341.8,167.8,346.6,164.8,351.8z M350.1,344.7c-2.5-4.4-5.3-8.6-8.2-12.6 c-2.9-4-6.1-7.8-9.4-11.4c-3.4-3.5-7.1-6.8-10.8-9.8c-7.6-6-15.8-11.1-24.3-15.3l-0.7,1.2c7.3,5.9,14.2,12.2,20.3,19.1 c3.1,3.4,5.9,7,8.5,10.7c2.6,3.7,5,7.5,7.1,11.4c2.1,3.9,3.7,8.1,5,12.3c1.3,4.2,2.7,8.2,4.2,12.3c1.5,4.1,2.9,8.2,4.3,12.5 l4.1,13.6l1.4,0.1c2.5-4.5,3.7-9.5,4.3-14.6c0.5-5.1,0.3-10.2-0.6-15.2C354.3,354,352.5,349.2,350.1,344.7z M243.5,392.4 c-0.5-6.5-1-13-1.7-19.7c-0.7-6.6-1.1-13.3-1-20c0-6.7,0.3-13.5,0.6-20.3l0.8-20.5c0.4-13.7,0.6-27.6-0.7-41.3l-1.4,0 c-0.9,13.6-2.7,27.1-4.8,40.6l-3.1,20.3c-0.9,6.8-1.8,13.7-2.4,20.6c-0.6,6.9-1.3,13.9-1.6,21c-0.2,7.1,0.3,14.2,1.7,21.2 c1.4,7,3.5,13.9,6.5,20.5c3,6.5,6.8,12.7,11.9,17.8l1.2-0.7c-1.5-6.9-2.8-13.5-3.7-20C244.7,405.5,244,399,243.5,392.4z M47.8,143.5 c0-4.5-3.6-8.1-8.1-8.1c-4.5,0-8.1,3.6-8.1,8.1c0,4.5,3.6,8.1,8.1,8.1C44.1,151.6,47.8,148,47.8,143.5z M96.8,53.3 c2.4,0,4.3-1.9,4.3-4.3c0-2.4-1.9-4.3-4.3-4.3s-4.3,1.9-4.3,4.3C92.5,51.4,94.4,53.3,96.8,53.3z M313.1,373.8 c-2.4,0-4.3,1.9-4.3,4.3c0,2.4,1.9,4.3,4.3,4.3c2.4,0,4.3-1.9,4.3-4.3C317.4,375.8,315.5,373.8,313.1,373.8z M10,251.6 c-2.4,0-4.3,1.9-4.3,4.3c0,2.4,1.9,4.3,4.3,4.3c2.4,0,4.3-1.9,4.3-4.3C14.3,253.5,12.3,251.6,10,251.6z M323,22.7 c2.4,0,4.3-1.9,4.3-4.3c0-2.4-1.9-4.3-4.3-4.3c-2.4,0-4.3,1.9-4.3,4.3C318.7,20.8,320.6,22.7,323,22.7z M466.5,140 c0-2.4-1.9-4.3-4.3-4.3c-2.4,0-4.3,1.9-4.3,4.3c0,2.4,1.9,4.3,4.3,4.3C464.6,144.3,466.5,142.4,466.5,140z M402.9,350.6 c-2.4,0-4.3,1.9-4.3,4.3c0,2.4,1.9,4.3,4.3,4.3c2.4,0,4.3-1.9,4.3-4.3C407.2,352.5,405.2,350.6,402.9,350.6z M465.7,196.5 c-2.4,0-4.3,1.9-4.3,4.3s1.9,4.3,4.3,4.3s4.3-1.9,4.3-4.3S468.1,196.5,465.7,196.5z M441.3,275.5c-4.5,0-8.1,3.6-8.1,8.1 s3.6,8.1,8.1,8.1c4.5,0,8.1-3.6,8.1-8.1S445.8,275.5,441.3,275.5z" fill="#134F93"/></g><g id="change3_1"><path d="M267.4,132c-2.4,3.8-4.6,7.7-6.6,11.7c-1.9,4-3.7,8.1-5.4,12.3c-1.8,4.2-3.3,8.4-4.7,12.7 c-2.9,8.6-5.2,17.4-7.2,26.4l-1.4-0.1c-0.2-9.3,0.5-18.6,1.9-27.9c0.8-4.6,1.6-9.3,2.7-13.9c1.1-4.6,2.4-9.1,3.8-13.6 c1.5-4.5,2.8-9.1,4.5-13.6c1.6-4.5,3.9-8.7,6.6-12.7c1.4-1.9,2.8-3.9,4.3-5.7c1.5-1.8,3.1-3.5,4.6-5.2c3.1-3.3,6.2-6.5,9.6-10.1 l1.3,0.4c0.4,5.1-0.9,10.1-2.5,14.6c-0.8,2.3-1.7,4.5-2.6,6.6c-0.9,2.1-1.8,4.1-2.7,6.2C271.8,124.3,269.7,128.2,267.4,132z M94.2,108.1c-2.3-1.8-4.8-3.2-7.1-4.6l-7.1-3.9L72.6,96c-2.5-1.2-4.8-2.6-7.3-3.9c-2.5-1.3-5.1-2.2-7.9-2.5 c-2.8-0.4-5.6-0.5-8.5-0.2C46,89.7,43,90.3,40,91.7l-0.3,1.4c2.2,2.5,4.5,4.2,6.8,5.8c2.3,1.6,4.6,2.9,7,4c2.4,1.1,4.8,1.9,7.5,2.3 c2.6,0.4,5.3,0.7,7.9,1.3l7.8,1.9l7.9,1.7c5.2,1.1,10.1,2.2,14.5,5.2l1-1C98.5,112,96.4,109.9,94.2,108.1z M186.8,272l-5.7,3.5 l-5.6,3.7L170,283l-5.3,4.1c-1.8,1.4-3.5,2.8-5.3,4.2l-5.3,4.2c-1.7,1.5-3.4,3-4.9,4.7c-1.5,1.7-2.9,3.4-4.3,5.2 c-1.3,1.9-2.5,3.8-3.7,5.7c-1.1,2-2.2,4-3.2,6c-0.9,2.1-1.8,4.2-2.6,6.4c-0.7,2.2-1.4,4.5-1.7,6.8l1.2,0.8c2.1-1.2,3.9-2.6,5.7-3.9 c1.8-1.3,3.6-2.7,5.2-4.1c1.7-1.4,3.3-2.8,4.9-4.2c1.6-1.4,3.2-2.9,4.7-4.3c1.6-1.4,3-3,4.5-4.5c1.5-1.5,2.8-3.2,4.1-4.8l4-5 c1.4-1.6,2.8-3.2,4.3-4.8l4.5-4.6l4.6-4.5l4.7-4.4l4.9-4.3c6.5-5.7,13.4-11,20.5-16.2l-0.7-1.2C202.5,263.5,194.5,267.5,186.8,272z M365.5,311.6c-3.4-5.9-7.6-11.2-12.5-15.9c-4.9-4.6-10.2-8.8-15.6-12.7c-5.4-3.9-11.1-7.4-17-10.4c-5.9-3-12-5.5-18.2-7.6 c-12.4-4.1-25.4-6.5-38.2-6.8l-0.1,1.4c12.5,2.4,24.6,6.4,35.8,11.8c5.6,2.7,11,5.8,16.2,9.2c5.2,3.4,10.1,7.1,14.7,11.1 c4.6,4,8.7,8.6,12.4,13.3c3.7,4.7,7.4,9.5,11.1,14.2c3.7,4.8,7.2,9.7,10.5,14.9c3.4,5.2,6.6,10.6,10,16.2l1.3-0.3 c0.4-6.7-0.6-13.4-2.4-19.9C371.6,323.7,368.9,317.5,365.5,311.6z M287.7,365.8c-0.5-1.3-1.1-2.5-1.8-3.6c-1.4-2.3-3-4.5-4.3-6.7 l-4-6.6c-1.4-2.1-2.7-4.3-4-6.4c-2.6-4.3-5-8.7-7.1-13.4l-1.4,0.3c-0.1,5.3,0.9,10.5,2,15.7c0.6,2.5,1.3,5.1,2,7.6l2.3,7.3 c0.3,1.2,0.7,2.4,1,3.7l0.7,3.7c0.2,1.2,0.5,2.4,1,3.5c0.4,1.1,0.8,2.2,1.4,3.2c0.5,1,1.1,2.1,1.8,3.1c0.6,1,1.2,2.1,2,3.1 c0.7,1,1.4,2.1,2.3,3.2c0.8,1.1,1.6,2.2,2.8,3.4l1.4-0.1c0.9-1.3,1.5-2.7,2.1-4.2c0.5-1.4,0.8-2.9,1-4.3c0.2-1.4,0.2-2.9,0.2-4.3 c-0.1-1.4-0.2-2.8-0.4-4.2C288.5,368.4,288.1,367,287.7,365.8z M14.2,168.2c0-2.4-1.9-4.3-4.3-4.3c-2.4,0-4.3,1.9-4.3,4.3 c0,2.4,1.9,4.3,4.3,4.3C12.3,172.5,14.2,170.6,14.2,168.2z M14.9,293.2c-2.4,0-4.3,1.9-4.3,4.3s1.9,4.3,4.3,4.3 c2.4,0,4.3-1.9,4.3-4.3S17.3,293.2,14.9,293.2z M8.6,126.6c0-2.4-1.9-4.3-4.3-4.3c-2.4,0-4.3,1.9-4.3,4.3c0,2.4,1.9,4.3,4.3,4.3 C6.7,130.9,8.6,128.9,8.6,126.6z M308.2,49.6c2.4,0,4.3-1.9,4.3-4.3s-1.9-4.3-4.3-4.3c-2.4,0-4.3,1.9-4.3,4.3S305.8,49.6,308.2,49.6 z M454.5,165.4c-2.4,0-4.3,1.9-4.3,4.3c0,2.4,1.9,4.3,4.3,4.3c2.4,0,4.3-1.9,4.3-4.3C458.8,167.3,456.8,165.4,454.5,165.4z M389.4,313.8c-2.4,0-4.3,1.9-4.3,4.3s1.9,4.3,4.3,4.3c2.4,0,4.3-1.9,4.3-4.3S391.8,313.8,389.4,313.8z M190.8,386.6 c-2.4,0-4.3,1.9-4.3,4.3c0,2.4,1.9,4.3,4.3,4.3c2.4,0,4.3-1.9,4.3-4.3C195.1,388.5,193.2,386.6,190.8,386.6z M95.5,354.8 c-2.4,0-4.3,1.9-4.3,4.3c0,2.4,1.9,4.3,4.3,4.3c2.4,0,4.3-1.9,4.3-4.3C99.8,356.7,97.8,354.8,95.5,354.8z M116.8,69.8 c-2.4,0-4.3,1.9-4.3,4.3s1.9,4.3,4.3,4.3c2.4,0,4.3-1.9,4.3-4.3S119.2,69.8,116.8,69.8z M52.9,273.5c-4.5,0-8.1,3.6-8.1,8.1 c0,4.5,3.6,8.1,8.1,8.1c4.5,0,8.1-3.6,8.1-8.1C61.1,277.2,57.4,273.5,52.9,273.5z M175.4,43.4c4.5,0,8.1-3.6,8.1-8.1 c0-4.5-3.6-8.1-8.1-8.1c-4.5,0-8.1,3.6-8.1,8.1C167.3,39.8,170.9,43.4,175.4,43.4z M234,219.5c-6.4,0-11.7,5.2-11.7,11.7 c0,6.4,5.2,11.7,11.7,11.7c6.4,0,11.7-5.2,11.7-11.7C245.6,224.7,240.4,219.5,234,219.5z" fill="#E6E6E6"/></g></svg>